<svg xmlns="http://www.w3.org/2000/svg" width="109.888" height="26.402" viewBox="0 0 109.888 26.402"><g id="Componente_48_2" data-name="Componente 48 – 2" transform="translate(0.506 0.5)"><text id="Poker" transform="translate(64.382 18.026)" fill="#fff" font-size="13" font-family="Montserrat-Medium, Montserrat" font-weight="500"><tspan x="0" y="0"> Poker </tspan></text><g id="Grupo_817" data-name="Grupo 817"><path id="Trazado_965" data-name="Trazado 965" d="M155.289,278.089a.565.565,0,0,1-.384-.15c-.922-.851-3.934-3.733-3.934-5.073a2.281,2.281,0,0,1,2.179-2.419,2.9,2.9,0,0,1,2.139,1.081,2.941,2.941,0,0,1,2.139-1.081,2.281,2.281,0,0,1,2.179,2.419c0,1.225-2.748,3.953-3.929,5.069A.565.565,0,0,1,155.289,278.089Zm-2.139-6.511a1.157,1.157,0,0,0-1.047,1.288c0,.479,1.421,2.2,3.182,3.877,1.74-1.693,3.165-3.415,3.191-3.879a1.156,1.156,0,0,0-1.047-1.286c-.572,0-.912.317-1.566.977l-.173.174a.566.566,0,0,1-.8,0l-.18-.181C154.042,271.876,153.723,271.578,153.15,271.578Z" transform="translate(-138.528 -263.008)" fill="#fff" stroke="rgba(0,0,0,0)" stroke-width="1"></path><path id="Trazado_966" data-name="Trazado 966" d="M151.742,266.68H139.4a1.983,1.983,0,0,1-1.981-1.981V246.142a1.983,1.983,0,0,1,1.981-1.981h12.345a1.983,1.983,0,0,1,1.981,1.981V264.7A1.983,1.983,0,0,1,151.742,266.68ZM139.4,245.293a.85.85,0,0,0-.849.849V264.7a.85.85,0,0,0,.849.849h12.345a.85.85,0,0,0,.849-.849V246.142a.85.85,0,0,0-.849-.849Z" transform="translate(-128.809 -244.161)" fill="#fff" stroke="rgba(0,0,0,0)" stroke-width="1"></path><path id="Trazado_967" data-name="Trazado 967" d="M120.44,271.705l-6.435,1.724a.861.861,0,0,1-1.04-.6l-4.8-17.924a.848.848,0,0,1,.6-1.04l5.684-1.523V251.17l-5.977,1.6a1.979,1.979,0,0,0-1.4,2.426l4.8,17.925a1.98,1.98,0,0,0,2.426,1.4l10.515-2.818Z" transform="translate(-107.001 -249.187)" fill="#fff" stroke="rgba(0,0,0,0)" stroke-width="1"></path><path id="Trazado_968" data-name="Trazado 968" d="M180.06,253.694a1.967,1.967,0,0,0-1.2-.922l-5.977-1.6v1.172l5.684,1.523a.849.849,0,0,1,.6,1.04l-4.8,17.924a.86.86,0,0,1-1.04.6l-6.435-1.724h-4.372l10.515,2.818a1.98,1.98,0,0,0,2.426-1.4l4.8-17.925A1.967,1.967,0,0,0,180.06,253.694Z" transform="translate(-146.805 -249.187)" fill="#fff" stroke="rgba(0,0,0,0)" stroke-width="1"></path></g></g></svg>