<?xml version="1.0" encoding="utf-8"?>
<!-- Generator: Adobe Illustrator 26.3.1, SVG Export Plug-In . SVG Version: 6.00 Build 0)  -->
<svg version="1.1" id="Capa_1" xmlns="http://www.w3.org/2000/svg" xmlns:xlink="http://www.w3.org/1999/xlink" x="0px" y="0px"
	 viewBox="0 0 28.4 28.2" style="enable-background:new 0 0 28.4 28.2;" xml:space="preserve">
<style type="text/css">
	.st0{fill:#FFFFFF;}
</style>
<g id="Componente_48_2" transform="translate(0.506 0.5)">
	<g id="Grupo_817">
		<path id="Trazado_965" class="st0" d="M13.7,16.3c-0.1,0-0.2,0-0.3-0.1C12.6,15.4,10,13,10,11.8c-0.1-1.1,0.7-2,1.8-2c0,0,0,0,0,0
			c0.7,0,1.4,0.4,1.8,0.9c0.4-0.5,1.1-0.9,1.8-0.9c1.1,0,1.9,0.9,1.8,2c0,0,0,0,0,0c0,1-2.3,3.3-3.3,4.3
			C13.9,16.2,13.8,16.3,13.7,16.3z M11.9,10.8c-0.5,0-0.9,0.5-0.9,1.1c0,0,0,0,0,0c0,0.4,1.2,1.9,2.7,3.3c1.5-1.4,2.7-2.9,2.7-3.3
			c0.1-0.5-0.3-1-0.9-1.1c0,0,0,0,0,0c-0.5,0-0.8,0.3-1.3,0.8L14,11.7c-0.2,0.2-0.5,0.2-0.7,0l-0.2-0.2C12.6,11,12.3,10.8,11.9,10.8
			z"/>
		<path id="Trazado_966" class="st0" d="M18.9,22.6H8.4c-0.9,0-1.7-0.8-1.7-1.7V5.2c0-0.9,0.8-1.7,1.7-1.7h10.4
			c0.9,0,1.7,0.8,1.7,1.7v15.7C20.6,21.8,19.8,22.6,18.9,22.6z M8.4,4.5c-0.4,0-0.7,0.3-0.7,0.7v15.7c0,0.4,0.3,0.7,0.7,0.7h10.4
			c0.4,0,0.7-0.3,0.7-0.7V5.2c0-0.4-0.3-0.7-0.7-0.7H8.4z"/>
		<path id="Trazado_967" class="st0" d="M10.9,22.6L5.4,24c-0.4,0.1-0.8-0.1-0.9-0.5L0.5,8.3C0.4,8,0.6,7.6,1,7.5c0,0,0,0,0,0
			l4.8-1.3v-1L0.7,6.5c-0.9,0.2-1.4,1.2-1.2,2c0,0,0,0,0,0l4.1,15.2c0.2,0.9,1.2,1.4,2.1,1.2c0,0,0,0,0,0l8.9-2.4L10.9,22.6z"/>
		<path id="Trazado_968" class="st0" d="M27.6,7.3c-0.2-0.4-0.6-0.7-1-0.8l-5.1-1.4v1l4.8,1.3C26.7,7.6,27,8,26.9,8.3l-4.1,15.2
			c-0.1,0.4-0.5,0.6-0.9,0.5l-5.4-1.5h-3.7l8.9,2.4c0.9,0.2,1.8-0.3,2.1-1.2c0,0,0,0,0,0l4.1-15.2C27.9,8.2,27.8,7.7,27.6,7.3z"/>
	</g>
</g>
</svg>
