<svg width="32" height="29" viewBox="0 0 32 29" fill="none" xmlns="http://www.w3.org/2000/svg">
<g clip-path="url(#clip0_667_5731)">
<path d="M28.5975 0.151367H3.17481C1.62228 0.151367 0.36084 1.55098 0.36084 3.26241V7.67413C0.36084 9.39058 1.62228 10.7852 3.17481 10.7852H4.36967L4.70006 6.11174C4.37863 6.11174 4.11786 5.82344 4.11786 5.46809C4.11786 5.11268 4.37863 4.82439 4.70006 4.82439H27.0724C27.3938 4.82439 27.6546 5.11268 27.6546 5.46809C27.6546 5.82344 27.3938 6.11174 27.0724 6.11174L27.4669 10.7852H28.5976C30.1502 10.7852 31.4116 9.39058 31.4116 7.67413V3.26241C31.4116 1.55098 30.15 0.151367 28.5975 0.151367Z" fill="#F2F6FC"/>
<path fill-rule="evenodd" clip-rule="evenodd" d="M10.4915 6.10693C10.4287 6.25313 10.3831 6.40666 10.3558 6.56442C10.2044 7.38523 9.99609 11.4737 9.99609 13.7445C9.99609 16.0153 10.2044 20.4159 10.3558 21.2348C10.4083 21.5416 10.5303 21.8323 10.7125 22.0847C11.2069 22.7491 12.4659 23.1972 16.0081 23.1972C19.5502 23.1972 20.8098 22.7522 21.3036 22.0847C21.4853 21.8331 21.6072 21.5432 21.6597 21.2373C21.8111 20.4165 22.0194 16.0178 22.0194 13.747C22.0194 11.4762 21.8111 7.38523 21.6597 6.56442C21.6325 6.40666 21.587 6.25313 21.5244 6.10693H10.4915ZM15.6417 18.7472C15.3806 18.7472 15.1776 18.5518 15.1776 18.3006V17.6414C14.6011 17.5716 14.0537 17.3832 13.673 17.1251C13.5062 17.0099 13.4409 16.7937 13.5062 16.6088L13.7745 15.8937C13.8216 15.7681 13.934 15.66 14.0609 15.6251C14.1986 15.5797 14.3473 15.5971 14.4706 15.6774C14.8404 15.9111 15.3443 16.0611 15.8084 16.0611C16.3268 16.0611 16.664 15.8204 16.664 15.4541C16.664 15.2204 16.5915 14.9448 15.6996 14.6064C14.6591 14.2053 13.5823 13.6332 13.5823 12.346C13.5823 11.3449 14.2241 10.5704 15.2537 10.274V9.55186C15.2537 9.30071 15.4676 9.10533 15.7178 9.10533H16.403C16.6641 9.10533 16.8671 9.30071 16.8671 9.55186V10.1763C17.3202 10.2286 17.7227 10.3647 18.0816 10.5704C18.2774 10.6786 18.3608 10.9088 18.2847 11.1147L18.0055 11.8193C17.9583 11.9344 17.8568 12.0321 17.7263 12.0774C17.5958 12.1228 17.4581 12.1123 17.3348 12.0495L17.3242 12.0437C17.1422 11.9435 16.7646 11.7356 16.1637 11.7356C15.551 11.7356 15.4568 12.067 15.4568 12.21C15.4568 12.4332 15.5293 12.6111 16.5445 13.0123C17.4726 13.3786 18.5494 13.9751 18.5494 15.3774C18.5494 16.403 17.8642 17.2332 16.7947 17.5472V18.2972C16.7947 18.5484 16.5916 18.7437 16.3306 18.7437H15.6345L15.6417 18.7472Z" fill="#F2F6FC"/>
<path fill-rule="evenodd" clip-rule="evenodd" d="M5.78481 6.10693C5.55688 7.84908 5.32251 11.4313 5.32251 13.6067V13.9015V14.1963C5.32251 16.702 5.63158 21.0809 5.88805 22.3548C6.30957 24.526 8.29356 26.6262 10.4617 27.1053C11.777 27.3791 13.5657 27.6467 16.0076 27.651C18.4496 27.6553 20.2383 27.3784 21.5535 27.1053C23.7168 26.6256 25.7032 24.526 26.1273 22.3548C26.3813 21.0828 26.6927 16.7038 26.6927 14.1963V13.9015V13.6067C26.6927 11.4332 26.4602 7.85016 26.2312 6.10693H23.3334C23.3462 6.16595 23.3576 6.22537 23.3676 6.28508C23.553 7.35986 23.7495 11.5429 23.7495 13.7445C23.7495 15.815 23.5641 20.3856 23.3676 21.5142C23.2708 22.0933 23.0394 22.6416 22.692 23.115C22.1673 23.8202 21.3514 24.2967 20.1975 24.5699C19.1981 24.8073 17.8272 24.9222 16.0076 24.9222C14.1874 24.9222 12.8172 24.8073 11.8178 24.5699C10.6638 24.2967 9.84735 23.8202 9.32325 23.115C8.9756 22.6415 8.74397 22.093 8.64706 21.5136C8.45299 20.3844 8.26514 15.815 8.26514 13.7445C8.26514 11.5436 8.46165 7.36111 8.64772 6.28508C8.65769 6.22537 8.66909 6.16595 8.68193 6.10693H5.78481Z" fill="#F2F6FC"/>
</g>
<defs>
<clipPath id="clip0_667_5731">
<rect width="31.0507" height="28.0651" fill="white" transform="translate(0.360107 0.150879)"/>
</clipPath>
</defs>
</svg>
