<svg width="33" height="34" viewBox="0 0 33 34" fill="none" xmlns="http://www.w3.org/2000/svg">
<path d="M27.8594 6.81867C25.241 4.18266 21.7723 2.56345 18.0719 2.24988L18.1119 2.20984C18.3303 1.98772 18.4521 1.68821 18.4509 1.37654C18.4497 1.06488 18.3255 0.766323 18.1054 0.545899C17.8853 0.325476 17.5871 0.201048 17.2757 0.199718C16.9644 0.198388 16.6651 0.320264 16.4431 0.538799L14.476 2.50782C14.2548 2.72937 14.1305 3.02978 14.1305 3.34302C14.1305 3.65625 14.2548 3.95667 14.476 4.17821L16.4484 6.15183C16.657 6.35973 16.9358 6.48206 17.2299 6.49481C17.5241 6.50756 17.8123 6.40981 18.0382 6.22074C18.264 6.03167 18.4111 5.76494 18.4506 5.47289C18.4901 5.18085 18.4191 4.88459 18.2515 4.64225C24.9252 5.41607 30.1229 11.1072 30.1229 17.9916C30.1229 25.4017 24.1003 31.4308 16.6969 31.4308C9.29342 31.4308 3.2702 25.403 3.2702 17.9929C3.26979 15.2907 4.08287 12.651 5.60339 10.4182C7.12391 8.18543 9.28132 6.46308 11.7942 5.4758C12.0859 5.36152 12.3202 5.13596 12.4457 4.84873C12.5712 4.56151 12.5775 4.23615 12.4634 3.94423C12.3492 3.65231 12.1239 3.41774 11.8369 3.29213C11.55 3.16652 11.2249 3.16015 10.9333 3.27443C7.76666 4.51557 5.0849 6.74685 3.28698 9.63631C1.48906 12.5258 0.671069 15.919 0.954684 19.3113C1.2383 22.7035 2.60837 25.9135 4.86108 28.4636C7.11379 31.0137 10.1288 32.7678 13.4574 33.4648C16.7861 34.1618 20.2507 33.7645 23.3357 32.3321C26.4207 30.8996 28.9613 28.5086 30.5795 25.5146C32.1978 22.5206 32.8071 19.0836 32.3171 15.7151C31.827 12.3465 30.2636 9.22631 27.8594 6.81867Z" fill="#F2F6FC"/>
<path d="M16.7763 7.64209C10.9398 7.64209 6.19189 12.3917 6.19189 18.2262C6.19189 24.0608 10.9398 28.8104 16.7763 28.8104C22.6128 28.8104 27.3602 24.0608 27.3602 18.2262C27.3602 12.3917 22.6123 7.64209 16.7763 7.64209ZM15.7992 16.8053C16.0589 17.0626 16.4101 17.2064 16.7758 17.2049C17.4529 17.2049 18.1149 17.4054 18.6782 17.7812C19.2414 18.1571 19.6807 18.6913 19.9407 19.3166C20.2006 19.9419 20.2694 20.6301 20.1385 21.2945C20.0076 21.9588 19.6828 22.5695 19.2051 23.0495C18.8106 23.441 18.328 23.7322 17.7977 23.8987V24.5323C17.7913 24.799 17.6809 25.0526 17.49 25.239C17.2991 25.4254 17.0428 25.5297 16.776 25.5297C16.5093 25.5297 16.253 25.4254 16.0621 25.239C15.8712 25.0526 15.7608 24.799 15.7544 24.5323V23.8987C15.0567 23.6833 14.4465 23.2498 14.0134 22.6619C13.5804 22.074 13.3474 21.3627 13.3486 20.6326C13.3486 20.3617 13.4562 20.1019 13.6477 19.9104C13.8393 19.7188 14.0991 19.6112 14.37 19.6112C14.6408 19.6112 14.9006 19.7188 15.0922 19.9104C15.2837 20.1019 15.3913 20.3617 15.3913 20.6326C15.392 21.0006 15.5387 21.3533 15.7992 21.6132C16.3184 22.1272 17.236 22.1248 17.7606 21.6056C18.0175 21.347 18.1615 20.9971 18.1608 20.6326C18.1607 20.263 18.014 19.9087 17.7529 19.6472C17.4931 19.3897 17.1416 19.246 16.7758 19.2476C16.0986 19.2476 15.4366 19.0471 14.8733 18.6712C14.3101 18.2954 13.8707 17.7611 13.6108 17.1359C13.3509 16.5106 13.2821 15.8224 13.413 15.158C13.5439 14.4936 13.8687 13.8829 14.3464 13.403C14.7411 13.0114 15.2239 12.7202 15.7544 12.5537V11.9202C15.7608 11.6535 15.8712 11.3999 16.0621 11.2135C16.253 11.0271 16.5093 10.9228 16.776 10.9228C17.0428 10.9228 17.2991 11.0271 17.49 11.2135C17.6809 11.3999 17.7913 11.6535 17.7977 11.9202V12.5573C18.493 12.7763 19.1007 13.2105 19.5332 13.7974C19.9656 14.3842 20.2003 15.0933 20.2035 15.8223C20.2035 16.0932 20.0959 16.3529 19.9044 16.5445C19.7128 16.736 19.453 16.8436 19.1821 16.8436C18.9113 16.8436 18.6515 16.736 18.4599 16.5445C18.2684 16.3529 18.1608 16.0932 18.1608 15.8223C18.1602 15.5945 18.1035 15.3704 17.9956 15.1697C17.8878 14.9691 17.7321 14.7982 17.5423 14.6721C17.3526 14.546 17.1347 14.4687 16.908 14.4469C16.6812 14.4252 16.4526 14.4597 16.2424 14.5474C16.0322 14.6351 15.8468 14.7734 15.7028 14.9498C15.5588 15.1263 15.4605 15.3356 15.4166 15.5591C15.3728 15.7826 15.3848 16.0135 15.4515 16.2313C15.5182 16.4491 15.6376 16.6471 15.7992 16.8077V16.8053Z" fill="#F2F6FC"/>
</svg>
