
<svg xmlns="http://www.w3.org/2000/svg" width="28.35" height="28.222" viewBox="0 0 28.35 28.222">
  <g id="Grupo_2918" data-name="Grupo 2918" transform="translate(-258.394 -259.483)">
    <g id="Grupo_1536" data-name="Grupo 1536" transform="translate(258.394 259.483)">
      <path id="Trazado_1518" data-name="Trazado 1518" d="M259.16,274.533a.766.766,0,0,1-.542-1.308l13.518-13.518a.766.766,0,0,1,1.084,0l13.3,13.3a.766.766,0,0,1-1.084,1.084l-12.757-12.758L259.7,274.309A.764.764,0,0,1,259.16,274.533Z" transform="translate(-258.394 -259.482)" fill="#fff"/>
    </g>
    <g id="Grupo_1537" data-name="Grupo 1537" transform="translate(261.513 273.313)">
      <path id="Trazado_1519" data-name="Trazado 1519" d="M332.91,509.615h-7.443a.766.766,0,0,1-.766-.766V502.9h-4.159v5.947a.766.766,0,0,1-.766.766h-7.443a.766.766,0,0,1-.766-.766V495.99a.766.766,0,1,1,1.532,0v12.093h5.911v-5.947a.766.766,0,0,1,.766-.766h5.692a.766.766,0,0,1,.766.766v5.947h5.911V495.99a.766.766,0,1,1,1.532,0v12.859A.766.766,0,0,1,332.91,509.615Z" transform="translate(-311.566 -495.224)" fill="#fff"/>
    </g>
  </g>
</svg>
